After realizing the desperately low number of Greek movies in TPB, I am beginning with an effort to encode my greek movie DVDs and share them with the world. This is my third torrent, I would appreciate your comments.

Please help me with seeding!



MOVIE:

Evdokia (1971)
97 min  -  Drama | Romance
Ratings: 7.2/10 from 216 users   

Director: Alexis Damianos
Writers: Alexis Damianos, John Baldwin (dialogue adaptation)
Stars: Maria Vassiliou, Giorgos Koutouzis and Koula Agagiotou

A prostitute (Evdokia) meets a sergeant (Yorgos). They fall in love and get married after a short love affair. Her profession, however, is a barrier for their relationship. They try to stay together and overcome their inner conflicts, but the social environment crushes them.
 
http://www.imdb.com/title/tt0067068/


Spoken Language: Greek
Subtitles: English (external srt file)


ENCODING PARAMETERS:

General
Complete name                    : G:\Evdokia (Alexis Damianos - 1972).NickD76\Evdokia (Alexis Damianos - 1972). NickD76.mp4
Format                           : MPEG-4
Format profile                   : Base Media
Codec ID                         : isom
File size                        : 781 MiB
Duration                         : 1h 39mn
Overall bit rate mode            : Variable
Overall bit rate                 : 1 102 Kbps
Encoded date                     : UTC 2012-01-11 02:38:27
Tagged date                      : UTC 2012-01-11 02:38:27

Video
ID                               : 1
Format                           : AVC
Format/Info                      : Advanced Video Codec
Format profile                   : High@L3.0
Format settings, CABAC           : Yes
Format settings, ReFrames        : 4 frames
Codec ID                         : avc1
Codec ID/Info                    : Advanced Video Coding
Duration                         : 1h 39mn
Bit rate                         : 973 Kbps
Maximum bit rate                 : 5 632 Kbps
Width                            : 720 pixels
Height                           : 520 pixels
Display aspect ratio             : 1.385
Frame rate mode                  : Constant
Frame rate                       : 25.000 fps
Color space                      : YUV
Chroma subsampling               : 4:2:0
Bit depth                        : 8 bits
Scan type                        : Progressive
Bits/(Pixel*Frame)               : 0.104
Stream size                      : 689 MiB (88%)
Writing library                  : x264 core 93 r1538bm bd72d46
Encoding settings                : cabac=1 / ref=3 / deblock=1:-2:-1 / 
Encoded date                     : UTC 2012-01-11 02:38:27
Tagged date                      : UTC 2012-01-11 02:41:16

Audio
ID                               : 2
Format                           : AAC
Format/Info                      : Advanced Audio Codec
Format profile                   : LC
Codec ID                         : 40
Duration                         : 1h 39mn
Bit rate mode                    : Variable
Bit rate                         : 125 Kbps
Maximum bit rate                 : 156 Kbps
Channel(s)                       : 2 channels
Channel positions                : Front: L R
Sampling rate                    : 48.0 KHz
Compression mode                 : Lossy
Stream size                      : 88.8 MiB (11%)
Encoded date                     : UTC 2012-01-11 02:40:54
Tagged date                      : UTC 2012-01-11 02:41:16


